<svg xmlns="http://www.w3.org/2000/svg" viewBox="0 0 100 14">
  <path fill="#1A2B3B" d="M99.058 13v-2.72h-6.273V8.257h5.355v-2.72h-5.355V3.582h6.103V.862h-9.605V13h9.775zM75.98 9.209c.272 2.669 2.533 3.995 5.848 3.995 2.907 0 5.236-1.428 5.236-3.893 0-2.023-1.173-3.196-3.366-3.587l-2.278-.408c-1.037-.187-1.581-.34-1.581-1.02 0-.697.68-1.122 1.649-1.122 1.156 0 1.938.459 2.006 1.377h3.366C86.605 2.154 84.803.658 81.454.658c-2.89 0-5.117 1.496-5.117 3.927 0 2.193 1.462 3.213 3.485 3.553l2.074.357c1.173.204 1.649.408 1.649 1.071 0 .799-.901 1.139-1.853 1.139-1.037 0-2.16-.357-2.261-1.496H75.98zM71.326 13h3.638L70.153.862h-4.03L61.33 13h3.485l.85-2.261h4.846L71.326 13zm-3.23-8.755h.05l1.377 3.791h-2.855l1.427-3.791zM59.653 13v-2.72H53.38V8.257h5.355v-2.72H53.38V3.582h6.103V.862h-9.605V13h9.775zM39.88 13V9.124h1.853L43.875 13H47.7l-2.55-4.454c1.309-.646 2.21-1.802 2.21-3.553 0-2.72-1.853-4.131-4.913-4.131h-6.07V13h3.503zm0-6.596V3.582h2.057c1.428 0 1.92.476 1.92 1.411s-.492 1.411-1.92 1.411H39.88zM26.004 6.931c0-2.295.867-3.57 2.533-3.57 1.241 0 1.87.697 2.074 1.785h3.468C33.586 2.477 31.852.658 28.537.658c-3.825 0-6.171 2.635-6.171 6.273 0 3.655 2.346 6.273 6.171 6.273 3.315 0 5.049-1.836 5.542-4.488h-3.468c-.204 1.088-.833 1.785-2.074 1.785-1.666 0-2.533-1.258-2.533-3.57z"/>
  <path fill="#95A0AB" d="M16 6.5l-3.5-4.64v6.5L16 13V6.5z"/>
  <rect width="4" height="10.14" x="1" y="2.86" fill="#1A2B3B"/>
  <rect width="4" height="11.14" x="8.5" y="1.86" fill="#1A2B3B"/>
  <rect width="4" height="12.14" x="16" y=".86" fill="#1A2B3B"/>
</svg>